<?xml version="1.0" encoding="UTF-8" standalone="no"?>
<svg xmlns="http://www.w3.org/2000/svg"
     width="512" height="512"
     viewBox="0 0 512 512">
  <path fill="#006c89"
        d="M 175.00,32.07
           C 162.84,34.69 151.32,38.55 141.00,45.52
             127.52,54.62 104.55,83.44 92.87,97.00
             92.87,97.00 61.92,133.00 61.92,133.00
             61.92,133.00 45.57,153.00 45.57,153.00
             37.13,165.06 32.02,182.31 32.00,197.00
             32.00,197.00 32.00,459.00 32.00,459.00
             32.02,473.92 36.52,479.93 52.00,480.00
             52.00,480.00 131.00,480.00 131.00,480.00
             131.00,480.00 459.00,480.00 459.00,480.00
             472.98,479.98 479.82,476.01 480.00,461.00
             480.00,461.00 480.00,384.00 480.00,384.00
             480.00,384.00 480.00,66.00 480.00,66.00
             479.99,61.24 480.02,58.63 478.48,54.00
             474.04,40.70 463.07,32.17 449.00,32.07
             449.00,32.07 437.00,32.07 437.00,32.07
             437.00,32.07 412.00,32.07 412.00,32.07
             412.00,32.07 255.00,32.07 255.00,32.07
             255.00,32.07 204.00,32.07 204.00,32.07
             204.00,32.07 175.00,32.07 175.00,32.07 Z
           M 167.00,176.10
           C 167.00,176.10 230.00,176.10 230.00,176.10
             230.00,176.10 301.00,176.10 301.00,176.10
             334.01,176.00 360.40,171.98 388.00,194.62
             393.40,199.04 397.19,203.35 401.25,209.00
             405.79,215.30 408.87,221.67 411.33,229.00
             414.26,237.69 415.99,245.80 416.00,255.00
             416.00,255.00 416.00,396.00 416.00,396.00
             415.99,400.28 416.14,404.13 413.91,408.00
             408.29,417.75 394.41,418.70 387.42,409.96
             383.90,405.56 384.01,401.29 384.00,396.00
             384.00,396.00 384.00,260.00 384.00,260.00
             383.95,229.75 362.25,208.05 332.00,208.00
             332.00,208.00 180.00,208.00 180.00,208.00
             149.80,208.05 128.05,229.80 128.00,260.00
             128.00,260.00 128.00,396.00 128.00,396.00
             127.99,401.29 128.10,405.56 124.58,409.96
             117.59,418.70 103.71,417.75 98.09,408.00
             95.86,404.13 96.01,400.28 96.00,396.00
             96.00,396.00 96.00,299.00 96.00,299.00
             96.00,299.00 96.00,254.00 96.00,254.00
             96.03,232.93 106.11,210.17 122.00,196.29
             127.92,191.12 132.99,187.74 140.00,184.25
             148.45,180.03 157.72,177.82 167.00,176.10 Z" />
</svg>
